<svg width="120" height="55" viewBox="0 0 120 55" fill="none" xmlns="http://www.w3.org/2000/svg">
<path d="M61.934 1.78711V53.0161H58.1041V1.78711H61.934Z" fill="#D5BE87"/>
<path d="M68.967 0V54.822L65.103 53.0171V1.78809L68.967 0Z" fill="#D5BE87"/>
<path d="M119.911 8.14205H73.453V10.742H119.911V8.14205Z" fill="black"/>
<path d="M119.911 43.3331H73.453V45.9331H119.911V43.3331Z" fill="black"/>
<path d="M46.458 8.14205H0V10.742H46.458V8.14205Z" fill="black"/>
<path d="M46.458 43.4191H0V46.0191H46.458V43.4191Z" fill="black"/>
<path d="M33.11 15.636V16.296C32.362 16.318 31.79 16.428 31.394 16.626C31.02 16.824 30.767 17.143 30.635 17.583C30.503 18.023 30.437 18.65 30.437 19.464V39.165C30.305 39.165 30.173 39.165 30.041 39.165C29.931 39.165 29.81 39.165 29.678 39.165L15.818 17.748V35.172C15.818 35.964 15.884 36.591 16.016 37.053C16.17 37.493 16.456 37.812 16.874 38.01C17.314 38.186 17.963 38.296 18.821 38.34V39C18.425 38.956 17.908 38.934 17.27 38.934C16.632 38.912 16.027 38.901 15.455 38.901C14.905 38.901 14.344 38.912 13.772 38.934C13.222 38.934 12.76 38.956 12.386 39V38.34C13.134 38.296 13.695 38.186 14.069 38.01C14.465 37.812 14.729 37.493 14.861 37.053C14.993 36.591 15.059 35.964 15.059 35.172V19.134C15.059 18.32 14.993 17.726 14.861 17.352C14.729 16.956 14.465 16.692 14.069 16.56C13.695 16.406 13.134 16.318 12.386 16.296V15.636C12.76 15.658 13.222 15.68 13.772 15.702C14.344 15.724 14.905 15.735 15.455 15.735C15.939 15.735 16.401 15.724 16.841 15.702C17.281 15.68 17.677 15.658 18.029 15.636L29.678 33.588V19.464C29.678 18.65 29.601 18.023 29.447 17.583C29.315 17.143 29.029 16.824 28.589 16.626C28.171 16.428 27.533 16.318 26.675 16.296V15.636C27.071 15.658 27.588 15.68 28.226 15.702C28.886 15.724 29.491 15.735 30.041 15.735C30.613 15.735 31.174 15.724 31.724 15.702C32.296 15.68 32.758 15.658 33.11 15.636Z" fill="black"/>
<path d="M88.386 15.636C88.848 15.658 89.453 15.68 90.201 15.702C90.949 15.724 91.686 15.735 92.412 15.735C93.446 15.735 94.436 15.724 95.382 15.702C96.328 15.68 96.999 15.669 97.395 15.669C100.057 15.669 102.048 16.274 103.368 17.484C104.688 18.694 105.348 20.256 105.348 22.17C105.348 22.962 105.216 23.798 104.952 24.678C104.688 25.536 104.226 26.339 103.566 27.087C102.928 27.813 102.048 28.407 100.926 28.869C99.804 29.331 98.385 29.562 96.669 29.562H93.501V28.902H96.339C97.901 28.902 99.089 28.605 99.903 28.011C100.739 27.417 101.3 26.636 101.586 25.668C101.894 24.7 102.048 23.655 102.048 22.533C102.048 20.443 101.63 18.881 100.794 17.847C99.98 16.813 98.572 16.296 96.57 16.296C95.558 16.296 94.898 16.483 94.59 16.857C94.282 17.231 94.128 17.99 94.128 19.134V35.502C94.128 36.294 94.205 36.888 94.359 37.284C94.535 37.68 94.865 37.944 95.349 38.076C95.833 38.208 96.537 38.296 97.461 38.34V39C96.889 38.956 96.163 38.934 95.283 38.934C94.403 38.912 93.512 38.901 92.61 38.901C91.752 38.901 90.949 38.912 90.201 38.934C89.453 38.934 88.848 38.956 88.386 39V38.34C89.134 38.296 89.695 38.208 90.069 38.076C90.465 37.944 90.729 37.68 90.861 37.284C90.993 36.888 91.059 36.294 91.059 35.502V19.134C91.059 18.32 90.993 17.726 90.861 17.352C90.729 16.956 90.465 16.692 90.069 16.56C89.695 16.406 89.134 16.318 88.386 16.296V15.636Z" fill="black"/>
<path d="M51.071 0V54.822L54.9349 53.0171V1.78809L51.071 0Z" fill="#D5BE87"/>
</svg>
