<svg width="120" height="55" viewBox="0 0 120 55" fill="none" xmlns="http://www.w3.org/2000/svg">
<g clip-path="url(#clip0_1_2)">
<path d="M61.934 1.78708V53.0161H58.1041V1.78708H61.934Z" fill="#D5BE87"/>
<path d="M68.967 -3.05176e-05V54.822L65.103 53.0171V1.78806L68.967 -3.05176e-05Z" fill="#D5BE87"/>
<path d="M119.911 8.14202H73.453V10.742H119.911V8.14202Z" fill="white"/>
<path d="M119.911 43.333H73.453V45.933H119.911V43.333Z" fill="white"/>
<path d="M46.458 8.14202H0V10.742H46.458V8.14202Z" fill="white"/>
<path d="M46.458 43.419H0V46.019H46.458V43.419Z" fill="white"/>
<path d="M37.931 14.636V15.296C37.513 15.384 37.051 15.637 36.545 16.055C36.039 16.451 35.632 17.155 35.324 18.167L29.087 38.165C29.043 38.165 28.999 38.165 28.955 38.165C28.911 38.165 28.867 38.165 28.823 38.165C28.779 38.165 28.735 38.165 28.691 38.165C28.647 38.165 28.603 38.165 28.559 38.165L21.563 17.408C21.277 16.55 20.958 15.989 20.606 15.725C20.254 15.461 19.924 15.318 19.616 15.296V14.636C20.012 14.658 20.507 14.68 21.101 14.702C21.695 14.724 22.267 14.735 22.817 14.735C23.675 14.735 24.478 14.724 25.226 14.702C25.974 14.68 26.579 14.658 27.041 14.636V15.296C26.381 15.318 25.853 15.384 25.457 15.494C25.083 15.604 24.863 15.846 24.797 16.22C24.753 16.594 24.863 17.21 25.127 18.068L30.044 33.281L29.582 33.677L33.938 19.982C34.334 18.772 34.51 17.837 34.466 17.177C34.444 16.495 34.202 16.022 33.74 15.758C33.278 15.472 32.585 15.318 31.661 15.296V14.636C32.299 14.658 32.948 14.68 33.608 14.702C34.268 14.724 34.884 14.735 35.456 14.735C36.028 14.735 36.501 14.724 36.875 14.702C37.249 14.68 37.601 14.658 37.931 14.636ZM14.864 14.636V15.296C14.292 15.34 13.874 15.45 13.61 15.626C13.368 15.802 13.247 16.088 13.247 16.484C13.269 16.858 13.39 17.386 13.61 18.068L18.725 33.677L17.9 34.502L22.52 19.751L23.015 20.543L17.57 38.165C17.526 38.165 17.482 38.165 17.438 38.165C17.394 38.165 17.35 38.165 17.306 38.165C17.262 38.165 17.218 38.165 17.174 38.165C17.13 38.165 17.086 38.165 17.042 38.165L10.046 17.408C9.76 16.55 9.397 15.989 8.957 15.725C8.517 15.461 8.121 15.318 7.769 15.296V14.636C8.209 14.658 8.748 14.68 9.386 14.702C10.046 14.724 10.684 14.735 11.3 14.735C12.026 14.735 12.697 14.724 13.313 14.702C13.951 14.68 14.468 14.658 14.864 14.636Z" fill="white"/>
<path d="M96.448 14.273C97.548 14.273 98.384 14.405 98.956 14.669C99.528 14.911 100.034 15.186 100.474 15.494C100.738 15.648 100.947 15.769 101.101 15.857C101.277 15.923 101.442 15.956 101.596 15.956C101.816 15.956 101.97 15.835 102.058 15.593C102.168 15.351 102.256 14.988 102.322 14.504H103.081C103.059 14.878 103.026 15.329 102.982 15.857C102.96 16.363 102.938 17.045 102.916 17.903C102.916 18.739 102.916 19.85 102.916 21.236H102.157C102.091 20.18 101.86 19.168 101.464 18.2C101.068 17.232 100.485 16.44 99.715 15.824C98.967 15.208 97.977 14.9 96.745 14.9C95.579 14.9 94.611 15.252 93.841 15.956C93.093 16.66 92.719 17.584 92.719 18.728C92.719 19.718 92.972 20.554 93.478 21.236C93.984 21.896 94.655 22.501 95.491 23.051C96.349 23.579 97.273 24.151 98.263 24.767C99.407 25.471 100.419 26.175 101.299 26.879C102.201 27.561 102.905 28.32 103.411 29.156C103.939 29.992 104.203 31.004 104.203 32.192C104.203 33.6 103.884 34.766 103.246 35.69C102.608 36.614 101.761 37.307 100.705 37.769C99.649 38.231 98.483 38.462 97.207 38.462C96.041 38.462 95.117 38.33 94.435 38.066C93.753 37.802 93.17 37.527 92.686 37.241C92.202 36.933 91.828 36.779 91.564 36.779C91.344 36.779 91.179 36.9 91.069 37.142C90.981 37.384 90.904 37.747 90.838 38.231H90.079C90.123 37.769 90.145 37.23 90.145 36.614C90.167 35.976 90.178 35.151 90.178 34.139C90.2 33.127 90.211 31.851 90.211 30.311H90.97C91.058 31.631 91.3 32.863 91.696 34.007C92.114 35.151 92.741 36.075 93.577 36.779C94.435 37.461 95.568 37.802 96.976 37.802C97.702 37.802 98.384 37.659 99.022 37.373C99.682 37.065 100.221 36.592 100.639 35.954C101.057 35.294 101.266 34.447 101.266 33.413C101.266 32.511 101.046 31.73 100.606 31.07C100.188 30.388 99.594 29.761 98.824 29.189C98.054 28.595 97.152 27.99 96.118 27.374C95.084 26.736 94.116 26.087 93.214 25.427C92.312 24.767 91.586 24.008 91.036 23.15C90.508 22.27 90.244 21.214 90.244 19.982C90.244 18.684 90.53 17.617 91.102 16.781C91.696 15.923 92.466 15.296 93.412 14.9C94.358 14.482 95.37 14.273 96.448 14.273Z" fill="white"/>
<path d="M51.071 -3.05176e-05V54.822L54.9349 53.0171V1.78806L51.071 -3.05176e-05Z" fill="#D5BE87"/>
</g>
<defs>
<clipPath id="clip0_1_2">
<rect width="119.911" height="54.822" fill="white"/>
</clipPath>
</defs>
</svg>
