<svg width="120" height="55" viewBox="0 0 120 55" fill="none" xmlns="http://www.w3.org/2000/svg">
<g clip-path="url(#clip0_1_2)">
<path d="M61.934 1.78708V53.0161H58.1041V1.78708H61.934Z" fill="#D5BE87"/>
<path d="M68.967 -3.05176e-05V54.822L65.103 53.0171V1.78806L68.967 -3.05176e-05Z" fill="#D5BE87"/>
<path d="M119.911 8.14202H73.453V10.742H119.911V8.14202Z" fill="white"/>
<path d="M119.911 43.333H73.453V45.933H119.911V43.333Z" fill="white"/>
<path d="M46.458 8.14202H0V10.742H46.458V8.14202Z" fill="white"/>
<path d="M46.458 43.419H0V46.019H46.458V43.419Z" fill="white"/>
<path d="M33.11 14.636V15.296C32.362 15.318 31.79 15.428 31.394 15.626C31.02 15.824 30.767 16.143 30.635 16.583C30.503 17.023 30.437 17.65 30.437 18.464V38.165C30.305 38.165 30.173 38.165 30.041 38.165C29.931 38.165 29.81 38.165 29.678 38.165L15.818 16.748V34.172C15.818 34.964 15.884 35.591 16.016 36.053C16.17 36.493 16.456 36.812 16.874 37.01C17.314 37.186 17.963 37.296 18.821 37.34V38C18.425 37.956 17.908 37.934 17.27 37.934C16.632 37.912 16.027 37.901 15.455 37.901C14.905 37.901 14.344 37.912 13.772 37.934C13.222 37.934 12.76 37.956 12.386 38V37.34C13.134 37.296 13.695 37.186 14.069 37.01C14.465 36.812 14.729 36.493 14.861 36.053C14.993 35.591 15.059 34.964 15.059 34.172V18.134C15.059 17.32 14.993 16.726 14.861 16.352C14.729 15.956 14.465 15.692 14.069 15.56C13.695 15.406 13.134 15.318 12.386 15.296V14.636C12.76 14.658 13.222 14.68 13.772 14.702C14.344 14.724 14.905 14.735 15.455 14.735C15.939 14.735 16.401 14.724 16.841 14.702C17.281 14.68 17.677 14.658 18.029 14.636L29.678 32.588V18.464C29.678 17.65 29.601 17.023 29.447 16.583C29.315 16.143 29.029 15.824 28.589 15.626C28.171 15.428 27.533 15.318 26.675 15.296V14.636C27.071 14.658 27.588 14.68 28.226 14.702C28.886 14.724 29.491 14.735 30.041 14.735C30.613 14.735 31.174 14.724 31.724 14.702C32.296 14.68 32.758 14.658 33.11 14.636Z" fill="white"/>
<path d="M88.386 14.636C88.848 14.658 89.453 14.68 90.201 14.702C90.949 14.724 91.686 14.735 92.412 14.735C93.446 14.735 94.436 14.724 95.382 14.702C96.328 14.68 96.999 14.669 97.395 14.669C100.057 14.669 102.048 15.274 103.368 16.484C104.688 17.694 105.348 19.256 105.348 21.17C105.348 21.962 105.216 22.798 104.952 23.678C104.688 24.536 104.226 25.339 103.566 26.087C102.928 26.813 102.048 27.407 100.926 27.869C99.804 28.331 98.385 28.562 96.669 28.562H93.501V27.902H96.339C97.901 27.902 99.089 27.605 99.903 27.011C100.739 26.417 101.3 25.636 101.586 24.668C101.894 23.7 102.048 22.655 102.048 21.533C102.048 19.443 101.63 17.881 100.794 16.847C99.98 15.813 98.572 15.296 96.57 15.296C95.558 15.296 94.898 15.483 94.59 15.857C94.282 16.231 94.128 16.99 94.128 18.134V34.502C94.128 35.294 94.205 35.888 94.359 36.284C94.535 36.68 94.865 36.944 95.349 37.076C95.833 37.208 96.537 37.296 97.461 37.34V38C96.889 37.956 96.163 37.934 95.283 37.934C94.403 37.912 93.512 37.901 92.61 37.901C91.752 37.901 90.949 37.912 90.201 37.934C89.453 37.934 88.848 37.956 88.386 38V37.34C89.134 37.296 89.695 37.208 90.069 37.076C90.465 36.944 90.729 36.68 90.861 36.284C90.993 35.888 91.059 35.294 91.059 34.502V18.134C91.059 17.32 90.993 16.726 90.861 16.352C90.729 15.956 90.465 15.692 90.069 15.56C89.695 15.406 89.134 15.318 88.386 15.296V14.636Z" fill="white"/>
<path d="M51.071 -3.05176e-05V54.822L54.9349 53.0171V1.78806L51.071 -3.05176e-05Z" fill="#D5BE87"/>
</g>
<defs>
<clipPath id="clip0_1_2">
<rect width="119.911" height="54.822" fill="white"/>
</clipPath>
</defs>
</svg>
