<svg width="120" height="55" viewBox="0 0 120 55" fill="none" xmlns="http://www.w3.org/2000/svg">
<path d="M61.934 1.78711V53.0161H58.1041V1.78711H61.934Z" fill="#D5BE87"/>
<path d="M68.967 0V54.822L65.103 53.0171V1.78809L68.967 0Z" fill="#D5BE87"/>
<path d="M119.911 8.14205H73.453V10.742H119.911V8.14205Z" fill="black"/>
<path d="M119.911 43.3331H73.453V45.9331H119.911V43.3331Z" fill="black"/>
<path d="M46.458 8.14205H0V10.742H46.458V8.14205Z" fill="black"/>
<path d="M46.458 43.4191H0V46.0191H46.458V43.4191Z" fill="black"/>
<path d="M37.931 15.636V16.296C37.513 16.384 37.051 16.637 36.545 17.055C36.039 17.451 35.632 18.155 35.324 19.167L29.087 39.165C29.043 39.165 28.999 39.165 28.955 39.165C28.911 39.165 28.867 39.165 28.823 39.165C28.779 39.165 28.735 39.165 28.691 39.165C28.647 39.165 28.603 39.165 28.559 39.165L21.563 18.408C21.277 17.55 20.958 16.989 20.606 16.725C20.254 16.461 19.924 16.318 19.616 16.296V15.636C20.012 15.658 20.507 15.68 21.101 15.702C21.695 15.724 22.267 15.735 22.817 15.735C23.675 15.735 24.478 15.724 25.226 15.702C25.974 15.68 26.579 15.658 27.041 15.636V16.296C26.381 16.318 25.853 16.384 25.457 16.494C25.083 16.604 24.863 16.846 24.797 17.22C24.753 17.594 24.863 18.21 25.127 19.068L30.044 34.281L29.582 34.677L33.938 20.982C34.334 19.772 34.51 18.837 34.466 18.177C34.444 17.495 34.202 17.022 33.74 16.758C33.278 16.472 32.585 16.318 31.661 16.296V15.636C32.299 15.658 32.948 15.68 33.608 15.702C34.268 15.724 34.884 15.735 35.456 15.735C36.028 15.735 36.501 15.724 36.875 15.702C37.249 15.68 37.601 15.658 37.931 15.636ZM14.864 15.636V16.296C14.292 16.34 13.874 16.45 13.61 16.626C13.368 16.802 13.247 17.088 13.247 17.484C13.269 17.858 13.39 18.386 13.61 19.068L18.725 34.677L17.9 35.502L22.52 20.751L23.015 21.543L17.57 39.165C17.526 39.165 17.482 39.165 17.438 39.165C17.394 39.165 17.35 39.165 17.306 39.165C17.262 39.165 17.218 39.165 17.174 39.165C17.13 39.165 17.086 39.165 17.042 39.165L10.046 18.408C9.76 17.55 9.397 16.989 8.957 16.725C8.517 16.461 8.121 16.318 7.769 16.296V15.636C8.209 15.658 8.748 15.68 9.386 15.702C10.046 15.724 10.684 15.735 11.3 15.735C12.026 15.735 12.697 15.724 13.313 15.702C13.951 15.68 14.468 15.658 14.864 15.636Z" fill="black"/>
<path d="M96.448 15.273C97.548 15.273 98.384 15.405 98.956 15.669C99.528 15.911 100.034 16.186 100.474 16.494C100.738 16.648 100.947 16.769 101.101 16.857C101.277 16.923 101.442 16.956 101.596 16.956C101.816 16.956 101.97 16.835 102.058 16.593C102.168 16.351 102.256 15.988 102.322 15.504H103.081C103.059 15.878 103.026 16.329 102.982 16.857C102.96 17.363 102.938 18.045 102.916 18.903C102.916 19.739 102.916 20.85 102.916 22.236H102.157C102.091 21.18 101.86 20.168 101.464 19.2C101.068 18.232 100.485 17.44 99.715 16.824C98.967 16.208 97.977 15.9 96.745 15.9C95.579 15.9 94.611 16.252 93.841 16.956C93.093 17.66 92.719 18.584 92.719 19.728C92.719 20.718 92.972 21.554 93.478 22.236C93.984 22.896 94.655 23.501 95.491 24.051C96.349 24.579 97.273 25.151 98.263 25.767C99.407 26.471 100.419 27.175 101.299 27.879C102.201 28.561 102.905 29.32 103.411 30.156C103.939 30.992 104.203 32.004 104.203 33.192C104.203 34.6 103.884 35.766 103.246 36.69C102.608 37.614 101.761 38.307 100.705 38.769C99.649 39.231 98.483 39.462 97.207 39.462C96.041 39.462 95.117 39.33 94.435 39.066C93.753 38.802 93.17 38.527 92.686 38.241C92.202 37.933 91.828 37.779 91.564 37.779C91.344 37.779 91.179 37.9 91.069 38.142C90.981 38.384 90.904 38.747 90.838 39.231H90.079C90.123 38.769 90.145 38.23 90.145 37.614C90.167 36.976 90.178 36.151 90.178 35.139C90.2 34.127 90.211 32.851 90.211 31.311H90.97C91.058 32.631 91.3 33.863 91.696 35.007C92.114 36.151 92.741 37.075 93.577 37.779C94.435 38.461 95.568 38.802 96.976 38.802C97.702 38.802 98.384 38.659 99.022 38.373C99.682 38.065 100.221 37.592 100.639 36.954C101.057 36.294 101.266 35.447 101.266 34.413C101.266 33.511 101.046 32.73 100.606 32.07C100.188 31.388 99.594 30.761 98.824 30.189C98.054 29.595 97.152 28.99 96.118 28.374C95.084 27.736 94.116 27.087 93.214 26.427C92.312 25.767 91.586 25.008 91.036 24.15C90.508 23.27 90.244 22.214 90.244 20.982C90.244 19.684 90.53 18.617 91.102 17.781C91.696 16.923 92.466 16.296 93.412 15.9C94.358 15.482 95.37 15.273 96.448 15.273Z" fill="black"/>
<path d="M51.071 0V54.822L54.9349 53.0171V1.78809L51.071 0Z" fill="#D5BE87"/>
</svg>
